<?xml version="1.0" encoding="UTF-8"?>
<svg xmlns="http://www.w3.org/2000/svg" xmlns:sodipodi="http://sodipodi.sourceforge.net/DTD/sodipodi-0.dtd" xmlns:inkscape="http://www.inkscape.org/namespaces/inkscape" version="1.1" viewBox="0 0 1000 1000">
  <!-- Generator: Adobe Illustrator 28.6.0, SVG Export Plug-In . SVG Version: 1.2.0 Build 709)  -->
  <g>
    <g id="Layer_1">
      <sodipodi:namedview bordercolor="#666666" borderopacity="1" inkscape:current-layer="layer1" inkscape:cx="500" inkscape:cy="500" inkscape:document-rotation="0" inkscape:document-units="mm" inkscape:pageopacity="0" inkscape:pageshadow="2" inkscape:window-height="705" inkscape:window-maximized="1" inkscape:window-width="1366" inkscape:window-x="-8" inkscape:window-y="-8" inkscape:zoom=".515" pagecolor="#ffffff" showgrid="false"/>
      <path d="M500,.7c-135.8,0-152.8.6-206.2,3-53.2,2.4-89.6,10.9-121.4,23.2-32.9,12.8-60.8,29.8-88.6,57.6-27.8,27.8-44.9,55.6-57.7,88.5-12.4,31.8-20.8,68.1-23.2,121.3-2.4,53.3-3,70.3-3,206s.6,152.7,3,206c2.4,53.2,10.9,89.5,23.2,121.3,12.8,32.9,29.9,60.7,57.7,88.5,27.8,27.8,55.7,44.9,88.5,57.7,31.8,12.4,68.2,20.8,121.4,23.2,53.3,2.4,70.4,3,206.1,3s152.8-.6,206.1-3c53.2-2.4,89.6-10.9,121.4-23.2,32.9-12.8,60.7-29.9,88.5-57.7,27.8-27.8,44.9-55.6,57.7-88.5,12.3-31.8,20.7-68.1,23.2-121.3,2.4-53.3,3-70.3,3-206s-.6-152.7-3-206c-2.5-53.2-10.9-89.5-23.2-121.3-12.8-32.9-29.9-60.7-57.7-88.5-27.8-27.8-55.6-44.9-88.5-57.6-31.9-12.4-68.2-20.8-121.5-23.2-53.3-2.4-70.3-3-206.1-3h.2ZM455.2,90.8c13.3,0,28.2,0,44.9,0,133.5,0,149.3.5,202,2.9,48.8,2.2,75.2,10.4,92.8,17.2,23.3,9.1,40,19.9,57.5,37.4,17.5,17.5,28.3,34.1,37.4,57.5,6.8,17.6,15,44,17.2,92.7,2.4,52.7,2.9,68.5,2.9,201.8s-.5,149.2-2.9,201.8c-2.2,48.7-10.4,75.2-17.2,92.7-9.1,23.3-19.9,39.9-37.4,57.4-17.5,17.5-34.1,28.3-57.5,37.4-17.6,6.9-44.1,15-92.8,17.2-52.7,2.4-68.5,2.9-202,2.9s-149.3-.5-202-2.9c-48.8-2.2-75.2-10.4-92.8-17.2-23.3-9.1-40-19.9-57.5-37.4-17.5-17.5-28.3-34.1-37.4-57.4-6.8-17.6-15-44-17.2-92.7-2.4-52.7-2.9-68.5-2.9-201.9s.5-149.2,2.9-201.8c2.2-48.7,10.4-75.2,17.2-92.8,9.1-23.3,19.9-40,37.4-57.5,17.5-17.5,34.2-28.3,57.5-37.4,17.6-6.9,44.1-15,92.8-17.2,46.1-2.1,64-2.7,157.2-2.8h0ZM766.9,173.7c-33.1,0-60,26.8-60,59.9s26.9,60,60,60,60-26.9,60-60-26.9-60-60-60h0ZM500,243.8c-141.8,0-256.8,114.9-256.8,256.6s115,256.5,256.8,256.5,256.7-114.8,256.7-256.5-114.9-256.6-256.7-256.6h0ZM500,333.8c92,0,166.7,74.6,166.7,166.5s-74.6,166.5-166.7,166.5-166.7-74.6-166.7-166.5,74.6-166.5,166.7-166.5h0Z" inkscape:connector-curvature="0"/>
    </g>
  </g>
</svg>